#N canvas 42 20 1864 979 12;
#X obj 93 4 adc~;
#X obj 535 130 poly 4 1;
#X listbox 528 190 13 0 0 0 - - - 0;
#X obj 528 160 pack f f f;
#X obj 528 219 route 1 2 3 4, f 39;
#X listbox 528 247 7 0 0 0 - - - 0;
#X listbox 595 247 7 0 0 0 - - - 0;
#X listbox 663 247 7 0 0 0 - - - 0;
#X listbox 730 247 7 0 0 0 - - - 0;
#X text 602 130 <-- first argument \, number of voices second;
#X text 631 146 argument selects voice stealing;
#X obj 532 84 notein;
#X obj 527 271 unpack f f;
#X obj 608 271 unpack f f;
#X obj 690 272 unpack f f;
#X obj 774 270 unpack f f;
#X obj 561 307 / 127;
#X obj 648 309 / 127;
#X obj 739 308 / 127;
#X obj 823 305 / 127;
#X obj 164 353 dac~;
#X obj 163 231 +~;
#X obj 17 217 *~ 0.35;
#X obj 87 84 reverbA~;
#X obj 94 61 mute-below-thresh~ 0.01;
#X msg 408 281 start;
#X msg 417 314 stop;
#X msg 348 24 1200;
#X obj 466 25 loadbang;
#X obj 53 150 modal_unit;
#X obj 194 148 modal_unit;
#X obj 291 146 modal_unit;
#X obj 402 149 modal_unit;
#X msg 159 4 1;
#X msg 265 306 open tatataxx.wav;
#X obj 240 368 writesf~ 2;
#X obj 283 84 reverbA~;
#X obj 290 62 mute-below-thresh~ 0.01;
#X obj 18 275 delwrite~ \$0-delayR 1000;
#X obj 17 192 delread~ \$0-delayR 820;
#X obj 362 225 +~;
#X obj 216 211 *~ 0.35;
#X obj 216 186 delread~ \$0-delayL 820;
#X obj 217 270 delwrite~ \$0-delayL 1000;
#X obj 87 112 *~ 200;
#X obj 275 103 *~ 200;
#X connect 0 0 24 0;
#X connect 0 1 37 0;
#X connect 1 0 3 0;
#X connect 1 1 3 1;
#X connect 1 2 3 2;
#X connect 2 0 4 0;
#X connect 3 0 2 0;
#X connect 4 0 5 0;
#X connect 4 1 6 0;
#X connect 4 2 7 0;
#X connect 4 3 8 0;
#X connect 5 0 12 0;
#X connect 6 0 13 0;
#X connect 7 0 14 0;
#X connect 8 0 15 0;
#X connect 11 0 1 0;
#X connect 11 1 1 1;
#X connect 12 0 29 3;
#X connect 12 1 16 0;
#X connect 13 0 30 3;
#X connect 13 1 17 0;
#X connect 14 0 31 3;
#X connect 14 1 18 0;
#X connect 15 0 32 3;
#X connect 15 1 19 0;
#X connect 16 0 29 2;
#X connect 17 0 30 2;
#X connect 18 0 31 2;
#X connect 19 0 32 2;
#X connect 21 0 20 0;
#X connect 21 0 35 0;
#X connect 21 0 38 0;
#X connect 22 0 21 1;
#X connect 23 0 44 0;
#X connect 24 0 23 0;
#X connect 25 0 35 0;
#X connect 26 0 35 0;
#X connect 27 0 29 4;
#X connect 27 0 32 4;
#X connect 27 0 31 4;
#X connect 27 0 30 4;
#X connect 28 0 27 0;
#X connect 28 0 33 0;
#X connect 29 0 21 0;
#X connect 29 1 40 0;
#X connect 30 0 21 0;
#X connect 30 1 40 0;
#X connect 31 0 21 0;
#X connect 31 1 40 0;
#X connect 32 0 21 0;
#X connect 32 1 40 0;
#X connect 33 0 23 1;
#X connect 33 0 36 1;
#X connect 34 0 35 0;
#X connect 36 0 45 0;
#X connect 37 0 36 0;
#X connect 39 0 22 0;
#X connect 40 0 43 0;
#X connect 40 0 35 1;
#X connect 40 0 20 1;
#X connect 41 0 40 1;
#X connect 42 0 41 0;
#X connect 44 0 30 0;
#X connect 44 0 31 0;
#X connect 44 0 32 0;
#X connect 45 0 29 1;
#X connect 45 0 30 1;
#X connect 45 0 31 1;
#X connect 45 0 32 1;
