#N canvas 42 20 1864 979 12;
#X obj 182 250 mtof;
#X obj 140 298 *~;
#X obj 141 331 bp~ 200 300;
#X obj 297 42 inlet;
#X obj 357 41 inlet;
#X obj 267 329 bp~ 200 300;
#X obj 327 295 * 2;
#X obj 265 265 *~;
#X obj 266 296 *~ 0.15;
#X obj 385 325 bp~ 200 300;
#X obj 383 261 *~;
#X obj 384 292 *~ 0.05;
#X obj 445 291 * 3;
#X obj 515 326 bp~ 200 300;
#X obj 513 262 *~;
#X obj 514 293 *~ 0.05;
#X obj 572 292 * 4;
#X obj 231 39 inlet;
#X obj 636 320 bp~ 200 300;
#X obj 634 256 *~;
#X obj 693 286 * 5;
#X obj 635 287 *~ 0.02;
#X obj 763 323 bp~ 200 300;
#X obj 761 259 *~;
#X obj 820 289 * 5;
#X obj 762 290 *~ 0.01;
#X obj 313 428 outlet~;
#X obj 236 79 lop~ 0.1;
#X obj 20 25 inlet~;
#X obj 121 21 inlet~;
#X obj 159 490 mtof;
#X obj 117 538 *~;
#X obj 118 571 bp~ 200 300;
#X obj 244 569 bp~ 200 300;
#X obj 304 535 * 2;
#X obj 242 505 *~;
#X obj 243 536 *~ 0.15;
#X obj 362 565 bp~ 200 300;
#X obj 360 501 *~;
#X obj 361 532 *~ 0.05;
#X obj 422 531 * 3;
#X obj 492 566 bp~ 200 300;
#X obj 490 502 *~;
#X obj 491 533 *~ 0.05;
#X obj 549 532 * 4;
#X obj 613 560 bp~ 200 300;
#X obj 611 496 *~;
#X obj 670 526 * 5;
#X obj 612 527 *~ 0.02;
#X obj 740 563 bp~ 200 300;
#X obj 738 499 *~;
#X obj 797 529 * 5;
#X obj 739 530 *~ 0.01;
#X obj 447 667 outlet~;
#X obj 133 56 s~ L;
#X obj 110 492 r~ L;
#X obj 240 463 r~ L;
#X obj 356 468 r~ L;
#X obj 483 466 r~ L;
#X obj 610 457 r~ L;
#X obj 738 456 r~ L;
#X connect 0 0 2 1;
#X connect 0 0 6 0;
#X connect 0 0 12 0;
#X connect 0 0 16 0;
#X connect 0 0 20 0;
#X connect 0 0 24 0;
#X connect 1 0 2 0;
#X connect 2 0 26 0;
#X connect 3 0 0 0;
#X connect 3 0 30 0;
#X connect 4 0 2 2;
#X connect 4 0 5 2;
#X connect 4 0 9 2;
#X connect 4 0 13 2;
#X connect 4 0 18 2;
#X connect 4 0 22 2;
#X connect 4 0 32 2;
#X connect 4 0 33 2;
#X connect 4 0 37 2;
#X connect 4 0 41 2;
#X connect 4 0 45 2;
#X connect 4 0 49 2;
#X connect 5 0 26 0;
#X connect 6 0 5 1;
#X connect 7 0 8 0;
#X connect 8 0 5 0;
#X connect 9 0 26 0;
#X connect 10 0 11 0;
#X connect 11 0 9 0;
#X connect 12 0 9 1;
#X connect 13 0 26 0;
#X connect 14 0 15 0;
#X connect 15 0 13 0;
#X connect 16 0 13 1;
#X connect 17 0 27 0;
#X connect 18 0 26 0;
#X connect 19 0 21 0;
#X connect 20 0 18 1;
#X connect 21 0 18 0;
#X connect 22 0 26 0;
#X connect 23 0 25 0;
#X connect 24 0 22 1;
#X connect 25 0 22 0;
#X connect 27 0 7 1;
#X connect 27 0 10 1;
#X connect 27 0 14 1;
#X connect 27 0 19 1;
#X connect 27 0 23 1;
#X connect 27 0 1 1;
#X connect 27 0 31 1;
#X connect 27 0 35 1;
#X connect 27 0 38 1;
#X connect 27 0 42 1;
#X connect 27 0 46 1;
#X connect 27 0 50 1;
#X connect 28 0 1 0;
#X connect 28 0 7 0;
#X connect 28 0 10 0;
#X connect 28 0 14 0;
#X connect 28 0 19 0;
#X connect 28 0 23 0;
#X connect 29 0 54 0;
#X connect 30 0 32 1;
#X connect 30 0 34 0;
#X connect 30 0 40 0;
#X connect 30 0 44 0;
#X connect 30 0 47 0;
#X connect 30 0 51 0;
#X connect 31 0 32 0;
#X connect 32 0 53 0;
#X connect 33 0 53 0;
#X connect 34 0 33 1;
#X connect 35 0 36 0;
#X connect 36 0 33 0;
#X connect 37 0 53 0;
#X connect 38 0 39 0;
#X connect 39 0 37 0;
#X connect 40 0 37 1;
#X connect 41 0 53 0;
#X connect 42 0 43 0;
#X connect 43 0 41 0;
#X connect 44 0 41 1;
#X connect 45 0 53 0;
#X connect 46 0 48 0;
#X connect 47 0 45 1;
#X connect 48 0 45 0;
#X connect 49 0 53 0;
#X connect 50 0 52 0;
#X connect 51 0 49 1;
#X connect 52 0 49 0;
#X connect 55 0 31 0;
#X connect 56 0 35 0;
#X connect 57 0 38 0;
#X connect 58 0 42 0;
#X connect 59 0 46 0;
#X connect 60 0 50 0;
